<?xml version="1.0" encoding="UTF-8" standalone="no"?>
<!DOCTYPE svg PUBLIC "-//W3C//DTD SVG 1.1//EN"
 "http://www.w3.org/Graphics/SVG/1.1/DTD/svg11.dtd">
<!-- Generated by graphviz version 14.1.3 (0)
 -->
<!-- Title: Power_State Pages: 1 -->
<svg width="390pt" height="100pt"
 viewBox="0.00 0.00 390.00 100.00" xmlns="http://www.w3.org/2000/svg" xmlns:xlink="http://www.w3.org/1999/xlink">
<g id="graph0" class="graph" transform="scale(1 1) rotate(0) translate(4 96.34)">
<title>Power_State</title>
<polygon fill="white" stroke="none" points="-4,4 -4,-96.34 385.96,-96.34 385.96,4 -4,4"/>
<text xml:space="preserve" text-anchor="start" x="157.98" y="-77.94" font-family="SimHei" font-weight="bold" font-size="12.00">Power State</text>
<!-- __start__ -->
<g id="node1" class="node">
<title>__start__</title>
<ellipse fill="black" stroke="black" cx="0.36" cy="-22.08" rx="0.36" ry="0.36"/>
</g>
<!-- Off -->
<g id="node2" class="node">
<title>Off</title>
<ellipse fill="none" stroke="black" cx="64.72" cy="-22.08" rx="27" ry="20.51"/>
<text xml:space="preserve" text-anchor="middle" x="64.72" y="-23.08" font-family="SimHei" font-size="10.00">Off</text>
<text xml:space="preserve" text-anchor="middle" x="64.72" y="-12.58" font-family="SimHei" font-size="10.00">关机</text>
</g>
<!-- __start__&#45;&gt;Off -->
<g id="edge6" class="edge">
<title>__start__&#45;&gt;Off</title>
<path fill="none" stroke="black" d="M1.12,-22.08C3.3,-22.08 14.07,-22.08 26.07,-22.08"/>
<polygon fill="black" stroke="black" points="25.72,-25.58 35.72,-22.08 25.72,-18.58 25.72,-25.58"/>
</g>
<!-- On -->
<g id="node3" class="node">
<title>On</title>
<ellipse fill="none" stroke="black" cx="204.72" cy="-51.08" rx="32" ry="20.51"/>
<text xml:space="preserve" text-anchor="middle" x="204.72" y="-52.08" font-family="SimHei" font-size="10.00">On</text>
<text xml:space="preserve" text-anchor="middle" x="204.72" y="-41.58" font-family="SimHei" font-size="10.00">运行中</text>
</g>
<!-- Off&#45;&gt;On -->
<g id="edge1" class="edge">
<title>Off&#45;&gt;On</title>
<path fill="none" stroke="black" d="M87.05,-34.16C94.07,-37.61 102.04,-40.99 109.72,-43.08 126.13,-47.53 144.68,-49.69 160.95,-50.68"/>
<polygon fill="black" stroke="black" points="160.66,-54.17 170.81,-51.14 160.99,-47.18 160.66,-54.17"/>
<text xml:space="preserve" text-anchor="middle" x="132.22" y="-51.31" font-family="SimHei" font-size="9.00">pressPower</text>
</g>
<!-- On&#45;&gt;Off -->
<g id="edge4" class="edge">
<title>On&#45;&gt;Off</title>
<path fill="none" stroke="black" d="M184.5,-35.09C175.94,-28.97 165.39,-22.71 154.72,-19.58 138.01,-14.67 118.77,-14.57 102.47,-15.99"/>
<polygon fill="black" stroke="black" points="102.25,-12.49 92.7,-17.08 103.02,-19.45 102.25,-12.49"/>
<text xml:space="preserve" text-anchor="middle" x="132.22" y="-30.53" font-family="SimHei" font-size="9.00">pressPower</text>
<text xml:space="preserve" text-anchor="middle" x="132.22" y="-20.78" font-family="SimHei" font-size="9.00">[hold 3s]</text>
</g>
<!-- Sleep -->
<g id="node4" class="node">
<title>Sleep</title>
<ellipse fill="none" stroke="black" cx="352.09" cy="-22.08" rx="29.88" ry="20.51"/>
<text xml:space="preserve" text-anchor="middle" x="352.09" y="-23.08" font-family="SimHei" font-size="10.00">Sleep</text>
<text xml:space="preserve" text-anchor="middle" x="352.09" y="-12.58" font-family="SimHei" font-size="10.00">休眠</text>
</g>
<!-- On&#45;&gt;Sleep -->
<g id="edge2" class="edge">
<title>On&#45;&gt;Sleep</title>
<path fill="none" stroke="black" d="M235.97,-45.95C255.49,-42.54 281.41,-37.84 304.21,-33.08 306.84,-32.53 309.54,-31.95 312.26,-31.35"/>
<polygon fill="black" stroke="black" points="312.93,-34.79 321.9,-29.16 311.38,-27.96 312.93,-34.79"/>
<text xml:space="preserve" text-anchor="middle" x="279.46" y="-53.37" font-family="SimHei" font-size="9.00">timeout</text>
<text xml:space="preserve" text-anchor="middle" x="279.46" y="-43.62" font-family="SimHei" font-size="9.00">[5min idle]</text>
</g>
<!-- Sleep&#45;&gt;Off -->
<g id="edge5" class="edge">
<title>Sleep&#45;&gt;Off</title>
<path fill="none" stroke="black" d="M322.85,-16.56C316.71,-15.39 310.25,-14.17 304.21,-13.08 246.49,-2.62 231.22,2.81 172.72,-1.58 144.48,-3.7 137.49,-5.53 109.72,-11.08 107.11,-11.6 104.43,-12.18 101.74,-12.78"/>
<polygon fill="black" stroke="black" points="101.15,-9.32 92.23,-15.03 102.77,-16.13 101.15,-9.32"/>
<text xml:space="preserve" text-anchor="middle" x="204.72" y="-12.53" font-family="SimHei" font-size="9.00">pressPower</text>
<text xml:space="preserve" text-anchor="middle" x="204.72" y="-2.78" font-family="SimHei" font-size="9.00">[hold 5s]</text>
</g>
<!-- Sleep&#45;&gt;On -->
<g id="edge3" class="edge">
<title>Sleep&#45;&gt;On</title>
<path fill="none" stroke="black" d="M322.31,-18.28C302.87,-16.64 276.83,-16.29 254.71,-22.33 248.37,-24.06 242.02,-26.84 236.08,-30"/>
<polygon fill="black" stroke="black" points="234.73,-26.73 227.87,-34.8 238.27,-32.78 234.73,-26.73"/>
<text xml:space="preserve" text-anchor="middle" x="279.46" y="-23.53" font-family="SimHei" font-size="9.00">pressKey</text>
</g>
</g>
</svg>
